<svg width="24" height="24" viewBox="-2 -4 24 24" fill="#36455D" xmlns="http://www.w3.org/2000/svg">
  <g id="hold">
    <path fill-rule="evenodd" clip-rule="evenodd"
      d="M0.500011 3C0.500011 1.34315 1.84316 0 3.50001 0H17.5C19.1569 0 20.5 1.34315 20.5 3V13C20.5 14.6569 19.1569 16 17.5 16H3.50001C1.84316 16 0.500011 14.6569 0.500011 13V3ZM3.50001 2C2.94773 2 2.50001 2.44772 2.50001 3V13C2.50001 13.5523 2.94773 14 3.50001 14H17.5C18.0523 14 18.5 13.5523 18.5 13V3C18.5 2.44772 18.0523 2 17.5 2H3.50001Z" />
    <path fill-rule="evenodd" clip-rule="evenodd" d="M19.5 6H1.50001V4H19.5V6Z" />
    <path fill-rule="evenodd" clip-rule="evenodd"
      d="M5.50001 10C5.50001 9.44772 5.94773 9 6.50001 9H10.5C11.0523 9 11.5 9.44772 11.5 10C11.5 10.5523 11.0523 11 10.5 11H6.50001C5.94773 11 5.50001 10.5523 5.50001 10Z" />
  </g>
</svg>