<svg width="24" height="24" viewBox="0 0 24 24" fill="none" xmlns="http://www.w3.org/2000/svg">
  <g id="Iconset/credit-card">
    <g id="Vector">
      <path fill-rule="evenodd" clip-rule="evenodd"
        d="M2.50001 7C2.50001 5.34315 3.84316 4 5.50001 4H19.5C21.1569 4 22.5 5.34315 22.5 7V17C22.5 18.6569 21.1569 20 19.5 20H5.50001C3.84316 20 2.50001 18.6569 2.50001 17V7ZM5.50001 6C4.94773 6 4.50001 6.44772 4.50001 7V17C4.50001 17.5523 4.94773 18 5.50001 18H19.5C20.0523 18 20.5 17.5523 20.5 17V7C20.5 6.44772 20.0523 6 19.5 6H5.50001Z"
        fill="#36455D" />
      <path fill-rule="evenodd" clip-rule="evenodd" d="M21.5 10H3.50001V8H21.5V10Z" fill="#36455D" />
      <path fill-rule="evenodd" clip-rule="evenodd"
        d="M7.50001 14C7.50001 13.4477 7.94773 13 8.50001 13H12.5C13.0523 13 13.5 13.4477 13.5 14C13.5 14.5523 13.0523 15 12.5 15H8.50001C7.94773 15 7.50001 14.5523 7.50001 14Z"
        fill="#36455D" />
    </g>
  </g>
</svg>