<svg width="16" height="16" viewBox="0 0 16 16" fill="none" xmlns="http://www.w3.org/2000/svg">
<path id="Vector" d="M3.63636 0H12.3636C14.372 0 16 1.628 16 3.63636V12.3636C16 14.372 14.372 16 12.3636 16H3.63636C1.628 16 0 14.372 0 12.3636V3.63636C0 1.628 1.628 0 3.63636 0ZM4.42618 8.72727C4.2333 8.72727 4.04831 8.8039 3.91192 8.94029C3.77553 9.07668 3.69891 9.26166 3.69891 9.45455V11.6364C3.69891 11.8292 3.77553 12.0142 3.91192 12.1506C4.04831 12.287 4.2333 12.3636 4.42618 12.3636H6.608C6.80088 12.3636 6.98587 12.287 7.12226 12.1506C7.25865 12.0142 7.33527 11.8292 7.33527 11.6364V9.45455C7.33527 9.26166 7.25865 9.07668 7.12226 8.94029C6.98587 8.8039 6.80088 8.72727 6.608 8.72727H4.42618ZM9.51709 8.72727C9.32421 8.72727 9.13922 8.8039 9.00283 8.94029C8.86644 9.07668 8.78982 9.26166 8.78982 9.45455V11.6364C8.78982 11.8292 8.86644 12.0142 9.00283 12.1506C9.13922 12.287 9.32421 12.3636 9.51709 12.3636H11.6989C11.8918 12.3636 12.0768 12.287 12.2132 12.1506C12.3496 12.0142 12.4262 11.8292 12.4262 11.6364V9.45455C12.4262 9.26166 12.3496 9.07668 12.2132 8.94029C12.0768 8.8039 11.8918 8.72727 11.6989 8.72727H9.51709ZM10.608 7.27273C10.8468 7.27273 11.0832 7.2257 11.3038 7.13433C11.5244 7.04295 11.7248 6.90903 11.8936 6.74019C12.0625 6.57136 12.1964 6.37093 12.2878 6.15033C12.3792 5.92974 12.4262 5.69331 12.4262 5.45455C12.4262 5.21578 12.3792 4.97935 12.2878 4.75876C12.1964 4.53817 12.0625 4.33773 11.8936 4.1689C11.7248 4.00006 11.5244 3.86614 11.3038 3.77476C11.0832 3.68339 10.8468 3.63636 10.608 3.63636C10.1258 3.63636 9.66333 3.82792 9.32235 4.1689C8.98138 4.50987 8.78982 4.97233 8.78982 5.45455C8.78982 5.93676 8.98138 6.39922 9.32235 6.74019C9.66333 7.08117 10.1258 7.27273 10.608 7.27273ZM6.05709 3.86764C5.98955 3.80007 5.90937 3.74647 5.82111 3.70991C5.73285 3.67334 5.63826 3.65452 5.54273 3.65452C5.4472 3.65452 5.3526 3.67334 5.26434 3.70991C5.17609 3.74647 5.0959 3.80007 5.02836 3.86764L3.84945 5.04691C3.71311 5.18329 3.63652 5.36824 3.63652 5.56109C3.63652 5.75394 3.71311 5.93889 3.84945 6.07527L5.02836 7.25455C5.0959 7.32211 5.17609 7.37571 5.26434 7.41227C5.3526 7.44884 5.4472 7.46766 5.54273 7.46766C5.63826 7.46766 5.73285 7.44884 5.82111 7.41227C5.90937 7.37571 5.98955 7.32211 6.05709 7.25455L7.236 6.07527C7.37234 5.93889 7.44894 5.75394 7.44894 5.56109C7.44894 5.36824 7.37234 5.18329 7.236 5.04691L6.05709 3.86764Z" fill="#FC363B"/>
</svg>
