<svg width="24" height="24" viewBox="0 0 24 24" fill="none" stroke="#36455D" stroke-width="2"
  xmlns="http://www.w3.org/2000/svg">
  <g id="Iconset/market">
    <path id="market" d="M4.99998 9V18C4.99998 19.1046 5.89542 20 6.99998 20H17C18.1046 20 19 19.1046 19 18V9" />
    <path id="market_2"
      d="M18.007 4H5.99296C5.25805 4 4.58234 4.40305 4.23315 5.0497L3.15976 7.03745C3.05489 7.23165 2.99998 7.44889 2.99998 7.6696C2.99998 8.40436 3.59563 9 4.33039 9H5.65291C6.23634 9 6.77277 8.68003 7.04998 8.16667L7.07235 8.12525C7.33579 7.6374 7.84556 7.33333 8.39998 7.33333C8.95441 7.33333 9.46418 7.6374 9.72762 8.12525L9.74998 8.16667C10.0272 8.68003 10.5636 9 11.1471 9H12.8529C13.4363 9 13.9728 8.68003 14.25 8.16667L14.2724 8.12525C14.5358 7.6374 15.0456 7.33333 15.6 7.33333C16.1544 7.33333 16.6642 7.6374 16.9276 8.12525L16.95 8.16667C17.2272 8.68003 17.7636 9 18.3471 9H19.6696C20.4043 9 21 8.40436 21 7.6696C21 7.44889 20.9451 7.23165 20.8402 7.03745L19.7668 5.0497C19.4176 4.40305 18.7419 4 18.007 4Z" />
    <path id="market_3"
      d="M9.16667 21V15C9.16667 13.8954 10.0621 13 11.1667 13H13.1667C14.2712 13 15.1667 13.8954 15.1667 15V21" />
  </g>
</svg>