<svg width="19" height="10" viewBox="0 0 19 10" fill="none" xmlns="http://www.w3.org/2000/svg">
<g id="Vector">
<path fill-rule="evenodd" clip-rule="evenodd" d="M5.4592 0.209209C5.73582 0.488155 5.73582 0.940416 5.4592 1.21936L1.71007 5L5.4592 8.78064C5.73582 9.05958 5.73582 9.51184 5.4592 9.79079C5.18258 10.0697 4.73409 10.0697 4.45747 9.79079L0.207466 5.50508C-0.0691554 5.22613 -0.0691554 4.77387 0.207466 4.49492L4.45747 0.209209C4.73409 -0.0697365 5.18258 -0.0697365 5.4592 0.209209Z" fill="#5E718E"/>
<path fill-rule="evenodd" clip-rule="evenodd" d="M13.5408 0.209209C13.2642 0.488155 13.2642 0.940416 13.5408 1.21936L17.2899 5L13.5408 8.78064C13.2642 9.05958 13.2642 9.51184 13.5408 9.79079C13.8174 10.0697 14.2659 10.0697 14.5425 9.79079L18.7925 5.50508C19.0692 5.22613 19.0692 4.77387 18.7925 4.49492L14.5425 0.209209C14.2659 -0.0697365 13.8174 -0.0697365 13.5408 0.209209Z" fill="#5E718E"/>
<path d="M5.04762 5C5.04762 4.53976 5.41006 4.16667 5.85714 4.16667C6.30423 4.16667 6.66667 4.53976 6.66667 5C6.66667 5.46024 6.30423 5.83333 5.85714 5.83333C5.41006 5.83333 5.04762 5.46024 5.04762 5Z" fill="#5E718E"/>
<path d="M7.47619 5C7.47619 4.53976 7.83863 4.16667 8.28572 4.16667C8.7328 4.16667 9.09524 4.53976 9.09524 5C9.09524 5.46024 8.7328 5.83333 8.28572 5.83333C7.83863 5.83333 7.47619 5.46024 7.47619 5Z" fill="#5E718E"/>
<path d="M9.90476 5C9.90476 4.53976 10.2672 4.16667 10.7143 4.16667C11.1614 4.16667 11.5238 4.53976 11.5238 5C11.5238 5.46024 11.1614 5.83333 10.7143 5.83333C10.2672 5.83333 9.90476 5.46024 9.90476 5Z" fill="#5E718E"/>
<path d="M12.3333 5C12.3333 4.53976 12.6958 4.16667 13.1429 4.16667C13.5899 4.16667 13.9524 4.53976 13.9524 5C13.9524 5.46024 13.5899 5.83333 13.1429 5.83333C12.6958 5.83333 12.3333 5.46024 12.3333 5Z" fill="#5E718E"/>
</g>
</svg>
