<svg width="24" height="24" viewBox="0 0 24 24" xmlns="http://www.w3.org/2000/svg">
  <g>
    <g>
      <path id="up"
        d="M19.2899 10.6663C19.4295 10.6662 19.5659 10.6146 19.6822 10.5181C19.7985 10.4216 19.8895 10.2844 19.9439 10.1236C19.9982 9.96285 20.0135 9.7856 19.9879 9.61399C19.9622 9.44239 19.8968 9.28403 19.7996 9.15867L16.0097 4.26958C15.9435 4.18428 15.8643 4.11647 15.7767 4.07017C15.6892 4.02386 15.5951 4 15.5 4C15.4049 4 15.3108 4.02386 15.2233 4.07017C15.1357 4.11647 15.0565 4.18428 14.9903 4.26958L11.2004 9.15867C11.1032 9.28403 11.0378 9.44239 11.0121 9.61399C10.9865 9.7856 11.0018 9.96285 11.0561 10.1236C11.1105 10.2844 11.2015 10.4216 11.3178 10.5181C11.4341 10.6146 11.5705 10.6662 11.7101 10.6663H14.7894V18.1111C14.7894 18.3468 14.8643 18.5729 14.9975 18.7396C15.1308 18.9063 15.3115 19 15.5 19C15.6885 19 15.8692 18.9063 16.0025 18.7396C16.1357 18.5729 16.2106 18.3468 16.2106 18.1111V10.6663H19.2899Z"
        fill="#36455D" />
      <path id="down"
        d="M12.2899 12.3337C12.4295 12.3338 12.5659 12.3854 12.6822 12.4819C12.7985 12.5784 12.8895 12.7156 12.9439 12.8764C12.9982 13.0371 13.0135 13.2144 12.9879 13.386C12.9622 13.5576 12.8968 13.716 12.7996 13.8413L9.00974 18.7304C8.94351 18.8157 8.86427 18.8835 8.77671 18.9298C8.68915 18.9761 8.59506 19 8.5 19C8.40494 19 8.31085 18.9761 8.22329 18.9298C8.13573 18.8835 8.05649 18.8157 7.99026 18.7304L4.20036 13.8413C4.10323 13.716 4.03775 13.5576 4.0121 13.386C3.98646 13.2144 4.00177 13.0371 4.05613 12.8764C4.1105 12.7156 4.20151 12.5784 4.31781 12.4819C4.4341 12.3854 4.57054 12.3338 4.7101 12.3337H7.78939V4.88892C7.78939 4.65317 7.86426 4.42707 7.99753 4.26036C8.13079 4.09365 8.31154 4 8.5 4C8.68846 4 8.86921 4.09365 9.00247 4.26036C9.13574 4.42707 9.21061 4.65317 9.21061 4.88892V12.3337H12.2899Z"
        fill="#36455D" />
    </g>
  </g>
</svg>