<svg width="16" height="16" viewBox="0 0 16 16" fill="none" xmlns="http://www.w3.org/2000/svg">
  <g id="Group 46">
    <path id="Vector"
      d="M9.86424 7.24775C10.5182 7.24775 11.0489 7.78382 11.0489 8.44433V11.6915C11.0489 12.5077 10.7279 13.2905 10.1565 13.8677C9.58507 14.4449 8.8101 14.7691 8.00203 14.7691C7.19396 14.7691 6.41898 14.4449 5.84759 13.8677C5.2762 13.2905 4.9552 12.5077 4.9552 11.6915V8.44433C4.9552 7.78382 5.48523 7.24775 6.13981 7.24775H9.86424ZM9.86424 8.27339H6.13981C6.09493 8.27339 6.05189 8.2914 6.02015 8.32346C5.98841 8.35552 5.97058 8.399 5.97058 8.44433V11.6915C5.97058 12.2357 6.18461 12.7577 6.56558 13.1425C6.94655 13.5273 7.46326 13.7435 8.00203 13.7435C8.5408 13.7435 9.05751 13.5273 9.43848 13.1425C9.81945 12.7577 10.0335 12.2357 10.0335 11.6915V8.44433C10.0335 8.399 10.0156 8.35552 9.98391 8.32346C9.95217 8.2914 9.90913 8.27339 9.86424 8.27339ZM2.41538 7.24775H4.70406C4.46524 7.53909 4.31939 7.89667 4.28572 8.27339H2.41538C2.3705 8.27339 2.32745 8.2914 2.29572 8.32346C2.26398 8.35552 2.24615 8.399 2.24615 8.44433V10.6659C2.24611 10.9243 2.30403 11.1793 2.41557 11.4118C2.5271 11.6443 2.68935 11.8483 2.89013 12.0084C3.09091 12.1685 3.32499 12.2806 3.57479 12.3362C3.8246 12.3918 4.08363 12.3895 4.33243 12.3295C4.38997 12.6741 4.49489 13.003 4.63907 13.3086C4.23785 13.417 3.81731 13.4308 3.40998 13.3488C3.00265 13.2669 2.61944 13.0914 2.28998 12.8359C1.96052 12.5804 1.69364 12.2519 1.50997 11.8756C1.32631 11.4993 1.23077 11.0854 1.23077 10.6659V8.44433C1.23077 7.78382 1.76147 7.24775 2.41538 7.24775ZM11.3 7.24775H13.5846C14.2385 7.24775 14.7692 7.78382 14.7692 8.44433V10.6666C14.7693 11.0858 14.674 11.4995 14.4906 11.8756C14.3072 12.2517 14.0407 12.5802 13.7116 12.8357C13.3825 13.0912 12.9996 13.2668 12.5926 13.3491C12.1856 13.4313 11.7654 13.4179 11.3643 13.31C11.5092 13.0036 11.6141 12.6748 11.6723 12.3301C11.9208 12.3895 12.1794 12.3912 12.4286 12.3353C12.6779 12.2793 12.9114 12.1671 13.1116 12.0071C13.3118 11.8471 13.4736 11.6434 13.5848 11.4112C13.6961 11.179 13.7538 10.9245 13.7538 10.6666V8.44433C13.7538 8.399 13.736 8.35552 13.7043 8.32346C13.6725 8.2914 13.6295 8.27339 13.5846 8.27339H11.7183C11.6847 7.89667 11.5388 7.53909 11.3 7.24775ZM8 2.46143C8.53859 2.46143 9.05513 2.67754 9.43597 3.06223C9.81681 3.44692 10.0308 3.96867 10.0308 4.51271C10.0308 5.05674 9.81681 5.57849 9.43597 5.96318C9.05513 6.34787 8.53859 6.56399 8 6.56399C7.4614 6.56399 6.94487 6.34787 6.56403 5.96318C6.18318 5.57849 5.96923 5.05674 5.96923 4.51271C5.96923 3.96867 6.18318 3.44692 6.56403 3.06223C6.94487 2.67754 7.4614 2.46143 8 2.46143ZM12.4 3.14519C12.8488 3.14519 13.2793 3.32528 13.5966 3.64586C13.914 3.96643 14.0923 4.40123 14.0923 4.85459C14.0923 5.30795 13.914 5.74274 13.5966 6.06332C13.2793 6.38389 12.8488 6.56399 12.4 6.56399C11.9512 6.56399 11.5207 6.38389 11.2034 6.06332C10.886 5.74274 10.7077 5.30795 10.7077 4.85459C10.7077 4.40123 10.886 3.96643 11.2034 3.64586C11.5207 3.32528 11.9512 3.14519 12.4 3.14519ZM3.6 3.14519C4.04883 3.14519 4.47927 3.32528 4.79664 3.64586C5.11401 3.96643 5.2923 4.40123 5.2923 4.85459C5.2923 5.30795 5.11401 5.74274 4.79664 6.06332C4.47927 6.38389 4.04883 6.56399 3.6 6.56399C3.15117 6.56399 2.72072 6.38389 2.40335 6.06332C2.08599 5.74274 1.90769 5.30795 1.90769 4.85459C1.90769 4.40123 2.08599 3.96643 2.40335 3.64586C2.72072 3.32528 3.15117 3.14519 3.6 3.14519ZM8 3.48707C7.7307 3.48707 7.47243 3.59513 7.28201 3.78747C7.09159 3.97982 6.98461 4.24069 6.98461 4.51271C6.98461 4.78472 7.09159 5.0456 7.28201 5.23795C7.47243 5.43029 7.7307 5.53835 8 5.53835C8.26929 5.53835 8.52756 5.43029 8.71798 5.23795C8.9084 5.0456 9.01538 4.78472 9.01538 4.51271C9.01538 4.24069 8.9084 3.97982 8.71798 3.78747C8.52756 3.59513 8.26929 3.48707 8 3.48707ZM12.4 4.17083C12.2205 4.17083 12.0483 4.24287 11.9213 4.3711C11.7944 4.49933 11.7231 4.67324 11.7231 4.85459C11.7231 5.03593 11.7944 5.20985 11.9213 5.33808C12.0483 5.46631 12.2205 5.53835 12.4 5.53835C12.5795 5.53835 12.7517 5.46631 12.8787 5.33808C13.0056 5.20985 13.0769 5.03593 13.0769 4.85459C13.0769 4.67324 13.0056 4.49933 12.8787 4.3711C12.7517 4.24287 12.5795 4.17083 12.4 4.17083ZM3.6 4.17083C3.42047 4.17083 3.24829 4.24287 3.12134 4.3711C2.99439 4.49933 2.92307 4.67324 2.92307 4.85459C2.92307 5.03593 2.99439 5.20985 3.12134 5.33808C3.24829 5.46631 3.42047 5.53835 3.6 5.53835C3.77953 5.53835 3.95171 5.46631 4.07865 5.33808C4.2056 5.20985 4.27692 5.03593 4.27692 4.85459C4.27692 4.67324 4.2056 4.49933 4.07865 4.3711C3.95171 4.24287 3.77953 4.17083 3.6 4.17083Z"
      fill="white" />
  </g>
</svg>