<svg width="16" height="16" viewBox="0 0 16 16" fill="none" xmlns="http://www.w3.org/2000/svg">
<g id="Group 48">
<g id="Vector">
<path fill-rule="evenodd" clip-rule="evenodd" d="M13 14H3C1.949 14 1 13.0666 1 12.0541C1 12.0541 1.01733 8.21438 1.01733 6.85611C1.01733 6.20746 1.42267 5.83351 2 5.56757V3.62162C2 2.82022 2.546 2 3.33333 2H6.33333H12.6667C13.4537 2 14 2.82022 14 3.62162V5.56757C14.537 5.84389 15 6.24573 15 6.86486V12.0541C15 13.0666 14.051 14 13 14ZM13.0127 6.51881C13.5423 6.51881 14 7.03935 14 7.51351V12.0541C14 12.5282 13.5297 13.027 13 13.027H3C2.47033 13.027 2 12.8525 2 12.3784V7.51351C2 7.03935 2.47033 6.54054 3 6.54054V3.94595C3 3.30508 3.34467 2.97297 4 2.97297H12C12.6553 2.97297 13 3.30508 13 3.94595V6.54054L13.0127 6.51881Z" fill="white"/>
<path fill-rule="evenodd" clip-rule="evenodd" d="M8.27067 11.0324C8.21342 11.062 8.14973 11.0779 8.0849 11.0787C8.02007 11.0795 7.95599 11.0652 7.898 11.037C4.52867 9.40854 4.81533 7.45254 4.82933 7.37049C4.82367 7.34519 4.835 6.53113 5.39 5.99016C5.69333 5.69438 6.08833 5.54519 6.56467 5.54519C7.285 5.54519 7.77333 5.87568 8.078 6.25124C8.38867 5.88054 8.876 5.55232 9.57867 5.54519C10.8737 5.54519 11.336 6.61222 11.335 7.3293C11.3677 8.71286 10.308 9.98324 8.27067 11.0324ZM8.46133 7.19989C8.47167 7.16519 8.721 6.34432 9.60133 6.33557C10.511 6.33557 10.521 7.28908 10.5217 7.376C10.5443 8.36032 9.677 9.37157 8.074 10.2372C5.48233 8.91751 5.627 7.54919 5.63967 7.43308C5.63867 7.28746 5.69733 6.81232 5.96867 6.54832C6.11567 6.4053 6.31 6.33557 6.56533 6.33557C7.42867 6.33557 7.65 7.10032 7.67133 7.18465C7.69219 7.26998 7.74164 7.34613 7.8119 7.40109C7.88215 7.45605 7.9692 7.48671 8.05933 7.48822C8.23767 7.4694 8.41067 7.37276 8.46133 7.19989Z" fill="white"/>
</g>
</g>
</svg>
