<svg width="17" height="18" viewBox="0 0 17 18" fill="none" xmlns="http://www.w3.org/2000/svg">
<g id="Group 51">
<g id="Vector">
<path d="M11.5321 3.72533C11.305 3.48408 10.9294 3.47743 10.6933 3.71013L9.27959 5.10826L7.91987 3.71726C7.68792 3.47957 7.31253 3.48028 7.08058 3.71797C6.84933 3.95566 6.84979 4.34034 7.08128 4.57803L8.42316 5.95051H7.50949C7.18207 5.95051 6.91629 6.22286 6.91629 6.55839C6.91629 6.89391 7.18207 7.16627 7.50949 7.16627H8.69172V7.77415H7.50949C7.18207 7.77415 6.91629 8.04651 6.91629 8.38203C6.91629 8.71755 7.18207 8.98991 7.50949 8.98991H8.69172V10.2373C8.69172 10.5735 8.9575 10.8451 9.28492 10.8451C9.61303 10.8451 9.87812 10.5732 9.87812 10.2373V8.98991H11.0698C11.398 8.98991 11.663 8.71755 11.663 8.38203C11.663 8.04651 11.398 7.77415 11.0698 7.77415H9.87812V7.16627H11.0698C11.398 7.16627 11.663 6.89391 11.663 6.55839C11.663 6.22286 11.398 5.95051 11.0698 5.95051H10.1363L11.5166 4.58515C11.7527 4.3515 11.7592 3.9673 11.5321 3.72533Z" fill="white"/>
<path d="M16.6336 13.2911C16.2546 13.1313 15.146 12.6681 14.0076 12.2133C15.159 10.9306 15.8161 9.23971 15.8161 7.49063C15.8161 3.63605 12.7554 0.5 8.99319 0.5C5.2317 0.5 2.17139 3.63605 2.17139 7.49063C2.17139 7.79884 2.19039 8.10516 2.2284 8.40197C2.27103 8.73441 2.57134 8.96545 2.89389 8.92603C3.21899 8.88234 3.44793 8.57721 3.40529 8.24407C3.37355 7.99432 3.35768 7.74272 3.35779 7.49086C3.35779 4.30685 5.88607 1.716 8.99319 1.716C12.101 1.716 14.6297 4.30685 14.6297 7.49086C14.6297 9.10056 13.9974 10.5941 12.8478 11.6981C12.8337 11.7121 12.8277 11.7315 12.814 11.746C12.0197 11.4433 11.3435 11.2049 11.0759 11.1636C10.6143 11.0895 10.1736 11.3082 9.90616 11.7125C9.68301 12.0504 9.62671 12.4498 9.756 12.7811C9.83548 12.9836 10.1363 13.4061 10.4933 13.8691C9.63273 13.8679 8.31865 13.7487 6.91861 13.195C6.33908 12.9658 5.63141 12.1951 5.0067 11.5155C4.11737 10.5471 3.27739 9.6327 2.36395 9.6327C2.02402 9.6327 1.70147 9.76282 1.43082 10.0083C1.09274 10.3166 0.779459 10.9263 1.20837 12.0837C1.99853 14.2144 5.07436 17.5 7.54309 17.5H16.4068C16.7349 17.5 17 17.2284 17 16.8921V13.8527C17.0014 13.6072 16.8561 13.3847 16.6336 13.2911ZM15.815 16.2847H7.56371L7.54471 16.8926V16.2847C5.73545 16.2847 2.96456 13.3949 2.31853 11.652C2.13107 11.1455 2.19387 10.9413 2.21936 10.9183C2.29583 10.8489 2.34032 10.8489 2.36465 10.8489C2.76552 10.8489 3.5624 11.7156 4.14355 12.3487C4.88922 13.1608 5.66084 14.0002 6.49132 14.329C8.07118 14.954 9.54815 15.0853 10.5091 15.0853C11.2761 15.0853 11.762 15.0027 11.7822 14.9989C11.9921 14.9619 12.1666 14.8137 12.2396 14.6088C12.313 14.4038 12.2739 14.1747 12.1369 14.0082C11.6364 13.3985 11.0506 12.6441 10.8893 12.3872C10.8947 12.3762 10.8988 12.3677 10.8958 12.3653C11.3194 12.4316 13.907 13.4661 15.8134 14.2618V16.2847H15.815Z" fill="white"/>
</g>
</g>
</svg>
